<?xml version="1.0" encoding="UTF-8"?>
<svg id="Capa_1" data-name="Capa 1" xmlns="http://www.w3.org/2000/svg" viewBox="0 0 199.11 201.89">
  <defs>
    <style>
      .cls-1 {
        fill: #fff;
        stroke-width: 0px;
      }
    </style>
  </defs>
  <path class="cls-1" d="M90.74,128.73c1.05,1.6,2.09,3.17,3.35,5.09-2.93,2.7-5.78,5.34-7.96,7.35,3.72,11.86,7.28,23.23,11,35.1H0c-.22-13.75,4.1-25.34,15.39-32.71,8.19-5.35,17.47-8.96,26.28-13.32,1.33-.66,2.76-1.1,4.09-1.75,14.27-6.89,13.99-8.62,12.24-23.02-.95-7.81-6.05-15.57-10.73-22.3-4.27-6.15-6.69-14.82-3.75-21.91.71-1.72.79-3.98.44-5.85-1.84-9.9-3.11-19.79-.65-29.75C46.94,11.04,57.62,1.89,74.02.29c6.6-.64,13.42-.14,20.01.81,3.22.46,6.13,3.15,9.17,4.83,1.27.7,2.46,1.63,3.81,2.07,10.58,3.5,17.35,11.61,17.41,23.09.04,8.4-1.65,16.8-2.49,25.21-.15,1.54-.38,3.29.16,4.64,3.3,8.22,1.56,16.57-4.89,22.86-.71.69-1.1,1.74-1.54,2.68-2.47,5.29-4.91,10.59-7.37,15.89-.34.73-1.11,1.4-1.14,2.12-.55,11.43-7.94,17.98-16.4,24.25ZM111.16,62.29c.32-.92.7-1.91,1.03-2.92,2.75-8.37,4.67-16.88,4.29-25.78-.45-10.56-4.69-15.68-14.75-18.08-1.18-.28-2.17-1.36-3.25-2.07-2.21-1.46-4.27-3.82-6.65-4.2-5.13-.83-10.5-1.36-15.62-.74-18.61,2.27-27.16,12.25-25.71,32.65.45,6.38,2.06,12.68,3.06,19.02.15.93.16,2.25-.37,2.88-5.08,6.12-3.47,12.25,4.04,14.69-.02,7.22,2.09,13.96,6.76,19.27,2.39,2.71,3.44,5.27,2.91,8.4-1.16,6.88,1.74,10.84,7.99,12.8.13.04.25.11.35.2,5.44,4.92,10.32,3.21,16.14-.08,5.46-3.09,8.66-6.15,7.43-12.82-.37-2.01-.45-5.16.71-6.19,5.12-4.57,6.87-10.6,8.4-16.87.65-2.67.4-6.03,4.66-5.84.49.02,1.17-1.05,1.53-1.74,2.52-4.73,1.47-9.36-2.96-12.58ZM77.81,139.44c-2.64,3.32-4.87,6.24-7.21,9.06-3.08,3.7-5.42,3.65-8.5-.13-3.53-4.31-7.02-8.66-10.58-13.06-5.39,2.22-10.73,4.1-15.78,6.59-5.79,2.86-11.58,5.85-16.88,9.53-5.48,3.82-8.62,9.55-9.75,16.4h61.69c3.22-8.92,6.27-17.36,9.46-26.21-.4-.35-1.28-1.14-2.45-2.19ZM65.91,122.82c-2.45,2.95-4.67,5.61-6.98,8.39,2.48,3.01,4.86,5.91,7.48,9.09,3.25-4.14,6.21-7.91,9.33-11.89-3.61-2.05-6.65-3.79-9.83-5.59Z"/>
  <path class="cls-1" d="M199.11,151.2c0,27.85-22.51,50.71-49.92,50.69-27.11-.03-49.63-22.97-49.66-50.58-.02-27.77,22.63-50.77,49.95-50.71,27.14.06,49.62,22.99,49.63,50.61ZM149.05,193.45c23.29-.06,41.89-19.09,41.77-42.72-.12-22.8-19.03-41.73-41.59-41.64-22.83.1-41.47,19.16-41.35,42.28.12,23.04,18.8,42.13,41.16,42.07Z"/>
  <path class="cls-1" d="M173.99,146.93v8.48h-20.31v20.86h-8.51v-20.56h-20.34v-8.72c4.95,0,10.01,0,15.06,0,5.31,0,5.28,0,5.23-5.19-.04-5.05,0-10.11,0-15.46h8.49v20.59h20.39Z"/>
</svg>