<?xml version="1.0" encoding="UTF-8"?>
<svg id="Capa_1" data-name="Capa 1" xmlns="http://www.w3.org/2000/svg" viewBox="0 0 170.59 200.72">
  <defs>
    <style>
      .cls-1 {
        fill: #0e5e65;
      }

      .cls-1, .cls-2 {
        stroke-width: 0px;
      }

      .cls-2 {
        fill: #32a493;
      }
    </style>
  </defs>
  <path class="cls-1" d="M8.56,55.9h153.49c-2.1,17.94-4.15,35.58-6.23,53.22-2.84,24.13-5.86,48.24-8.47,72.39-1.42,13.15-7.53,19.2-20.58,19.2-27.83,0-55.66.01-83.49,0-12.15,0-18.6-6.18-19.97-18.25-3.45-30.42-7.14-60.82-10.71-91.23-1.36-11.57-2.65-23.14-4.04-35.33Z"/>
  <path class="cls-2" d="M150.12,21.52c3.85,0,7.84-.12,11.82.03,5.14.19,8.38,3.22,8.64,7.82.28,4.84-2.84,8.47-7.93,9.16-1.15.16-2.33.09-3.49.09-49.31,0-98.61,0-147.92,0-6.84,0-10.54-2.51-11.15-7.45-.64-5.18,2.49-9.11,7.76-9.57,2.15-.19,4.33-.09,6.49-.1,1.99-.01,3.98,0,6.38,0,1.52-7.72,6.97-8.93,13.79-8.79,13.8.29,27.62.09,40.61.09,1.82-4.05,3.04-7.76,5.11-10.89C81.07.61,83.77.01,85.63,0c5.11-.03,7.29,3.27,8.81,12.79,14.23,0,28.53,0,42.84,0,8.01,0,9.73,1.15,12.84,8.72Z"/>
</svg>