<?xml version="1.0" encoding="UTF-8"?><svg id="Capa_1" xmlns="http://www.w3.org/2000/svg" viewBox="0 0 202.9 202.94"><defs><style>.cls-1{fill:#0e5e65;}.cls-1,.cls-2{stroke-width:0px;}.cls-2{fill:#32a493;}</style></defs><path class="cls-1" d="M122.5,38.01c14.23,14.31,28.18,28.33,43.06,43.3-1.18.81-2.89,1.63-4.16,2.9-38.45,38.36-76.87,76.75-115.21,115.22-2.4,2.41-4.74,3.56-8.22,3.5-12.46-.22-24.92-.09-37.95-.09,0-13.98-.04-27.58.08-41.18.01-1.12.94-2.44,1.81-3.3,40.04-40.07,80.12-80.09,120.2-120.12.11-.11.29-.17.41-.23Z"/><path class="cls-2" d="M139.31,20.69c5.7-5.62,11.54-11.55,17.58-17.27,4.72-4.48,10.53-4.59,15.18-.08,9.32,9.04,18.51,18.22,27.55,27.54,4.49,4.63,4.33,10.46-.16,15.18-5.74,6.02-11.67,11.86-17.38,17.63-14.25-14.33-28.28-28.44-42.76-43Z"/></svg>