<?xml version="1.0" encoding="UTF-8"?>
<svg id="Capa_1" data-name="Capa 1" xmlns="http://www.w3.org/2000/svg" viewBox="0 0 142.66 172.96">
  <defs>
    <style>
      .cls-1 {
        fill: #0e5e65;
      }

      .cls-1, .cls-2, .cls-3 {
        stroke-width: 0px;
      }

      .cls-2 {
        fill: #32a493;
      }

      .cls-3 {
        fill: #32a596;
      }
    </style>
  </defs>
  <path class="cls-3" d="M.02,100.66c0-2.16-.05-4.33,0-6.49.25-9.38,7.17-16.31,16.49-16.53,9.01-.21,16.81,6.69,17.51,15.7.34,4.31-.12,8.71.55,12.95,2.54,16.1,15.86,28.57,32.07,30.46,17.63,2.05,34.27-7.19,41.16-22.86,1-2.28,1.82-4.66,2.93-6.89,3.8-7.62,13.07-11.21,20.75-8.14,8.49,3.4,13.08,11.67,10.43,20.02-14.18,44.7-56.24,63.08-93.94,49.94C19.4,158.84.06,131.37.02,100.66Z"/>
  <path class="cls-2" d="M54.06,38.5c0,7.65.09,15.31-.02,22.96-.13,8.41-6.12,14.15-14.71,14.32-8.3.16-14.8-5.75-14.89-14.11-.17-15.31-.19-30.62.05-45.92.13-8.56,5.3-14.55,12.65-15.62,6.54-.95,13.51,3.42,16.23,10.03.8,1.93.8,3.89.8,5.88.01,7.49,0,14.97,0,22.46h-.12Z"/>
  <path class="cls-1" d="M87.88,50.06c0,5.83.1,11.66-.02,17.49-.18,8.64-6.59,14.97-14.88,14.87-8.02-.09-14.03-6.4-14.07-14.92-.06-11.66-.09-23.32-.03-34.99.05-9.04,5.53-14.71,14.03-14.72,8.39,0,14.85,6.32,15.02,14.76.06,3,0,6,0,9,0,2.83,0,5.66,0,8.5h-.04Z"/>
  <path class="cls-3" d="M122.4,66.25c0,3.99.06,7.98-.01,11.97-.15,8.79-6.68,15.41-15,15.3-8.44-.11-14.29-6.28-14.33-15.19-.03-7.98-.08-15.97.04-23.95.13-8.77,6.25-14.76,14.82-14.71,8.29.05,14.23,6.03,14.39,14.6.08,3.99.01,7.98.01,11.97h.07Z"/>
</svg>