<?xml version="1.0" encoding="UTF-8"?>
<svg id="Capa_1" data-name="Capa 1" xmlns="http://www.w3.org/2000/svg" viewBox="0 0 693.91 241.42">
  <defs>
    <style>
      .cls-1 {
        fill: #0e5e65;
      }

      .cls-1, .cls-2, .cls-3 {
        stroke-width: 0px;
      }

      .cls-2 {
        fill: #32a493;
      }

      .cls-3 {
        fill: #32a596;
      }
    </style>
  </defs>
  <path class="cls-1" d="M656.48,174.02c-21.02,8.01-40.61,5.76-58.72-6.85-15.01-10.45-23.29-25.21-24.09-43.4-.76-17.29-.5-34.65-.28-51.97.13-10.38,9.09-18.47,19.33-18.21,10.25.26,18.07,8.19,18.13,18.73.09,15.16-.13,30.32,0,45.48.09,10.04,6.1,18.31,15.42,21.88,8.39,3.22,18.11,1.03,24.34-5.63,4.03-4.31,6.06-9.41,6.03-15.4-.09-14.99-.02-29.99-.08-44.98-.05-11.95,7.11-20.09,17.97-20.25,11.32-.17,19.31,8.11,19.32,20.16.03,33.99-.07,67.97.06,101.96.1,26.2-10.54,46.45-34.12,58.16-24.13,11.98-48.06,9.79-70.68-5.01-5.42-3.54-8.79-8.5-9.95-14.94-1.2-6.64.63-12.28,5.74-16.6,5.22-4.42,11.27-5.67,17.74-3.1,2.92,1.16,5.61,2.9,8.43,4.34,9.21,4.71,18.77,5.55,28.57,2.27,11.7-3.91,17.92-13.7,16.85-26.64Z"/>
  <path class="cls-1" d="M135.49,72.89c0,17.16.37,34.33-.07,51.47-1.19,46.75-49.29,78.83-92.34,61.49C18.42,175.93,4.83,156.75.31,130.99c-1.87-10.68,4.81-20.06,14.85-22.11,9.54-1.95,18.97,4.32,21.95,14.56,1.02,3.51,1.85,7.12,3.3,10.45,5.88,13.56,19.19,20.6,33.29,17.84,13.61-2.66,23.76-14.95,23.8-29.43.11-33.32.33-66.64-.19-99.95-.2-12.93,9.77-20.7,18.93-20.71,11.32,0,19.29,8.45,19.3,20.77,0,16.83,0,33.65,0,50.48-.02,0-.03,0-.05,0Z"/>
  <path class="cls-1" d="M487.4,139.03c0,10.33.15,20.66-.04,30.98-.19,9.95-6.81,17.31-16.23,18.56-9.51,1.26-18.06-4.29-20.79-13.38-.64-2.14-.58-4.27-.59-6.43-.03-17.82,0-35.64-.06-53.46-.03-10.76-6.26-19.05-16.3-21.87-9.76-2.75-20.03,1.43-25.41,10.29-1.97,3.24-2.63,6.73-2.62,10.49.05,18.32.1,36.64-.03,54.96-.1,14.68-12.91,23.62-25.97,18.17-7.16-2.99-11.23-8.78-11.29-16.31-.16-22.47-1.3-44.99.54-67.41,2.26-27.48,26.9-50.03,54.58-51.12,24.56-.97,43.77,8.22,56.7,29.42,5.14,8.43,7.39,17.8,7.52,27.62.13,9.83.03,19.65.03,29.48h-.04Z"/>
  <path class="cls-1" d="M547.21,75.4c0,16.98-.23,33.96.06,50.94.28,16.45,6.43,30,20.64,39.36,8.72,5.75,11.31,15.94,6.63,24.39-4.55,8.21-14.99,11.6-24.38,7.54-8.59-3.71-15.32-10.03-21.3-17-12.69-14.79-19.52-31.9-19.51-51.6.02-35.96-.06-71.92-.11-107.88-.02-11.13,8.07-19.57,18.87-19.61,10.82-.04,19.09,8.28,19.13,19.41.05,18.15.01,36.29.01,54.44h-.05Z"/>
  <path class="cls-3" d="M149.6,117.7c0-2.16-.05-4.33,0-6.49.25-9.38,7.17-16.31,16.49-16.53,9.01-.21,16.81,6.69,17.51,15.7.34,4.31-.12,8.71.55,12.95,2.54,16.1,15.86,28.57,32.07,30.46,17.63,2.05,34.27-7.19,41.16-22.86,1-2.28,1.82-4.66,2.93-6.89,3.8-7.62,13.07-11.21,20.75-8.14,8.49,3.4,13.08,11.67,10.43,20.02-14.18,44.7-56.24,63.08-93.94,49.94-28.58-9.96-47.91-37.44-47.96-68.15Z"/>
  <path class="cls-1" d="M348.36,120.15c0,16.32.08,32.63-.03,48.95-.08,11.94-7.92,19.85-19.19,19.7-9.92-.14-18.13-7.62-18.18-17.54-.17-33.46-.16-66.93.11-100.39.09-11.5,8.19-19.09,18.94-18.89,10.63.2,17.89,8.12,17.94,19.74.06,16.14.02,32.29.02,48.43.13,0,.27,0,.4,0Z"/>
  <path class="cls-2" d="M203.64,55.54c0,7.65.09,15.31-.02,22.96-.13,8.41-6.12,14.15-14.71,14.32-8.3.16-14.8-5.75-14.89-14.11-.17-15.31-.19-30.62.05-45.92.13-8.56,5.3-14.55,12.65-15.62,6.54-.95,13.51,3.42,16.23,10.03.8,1.93.8,3.89.8,5.88.01,7.49,0,14.97,0,22.46h-.12Z"/>
  <path class="cls-1" d="M237.46,67.11c0,5.83.1,11.66-.02,17.49-.18,8.64-6.59,14.97-14.88,14.87-8.02-.09-14.03-6.4-14.07-14.92-.06-11.66-.09-23.32-.03-34.99.05-9.04,5.53-14.71,14.03-14.72,8.39,0,14.85,6.32,15.02,14.76.06,3,0,6,0,9,0,2.83,0,5.66,0,8.5h-.04Z"/>
  <path class="cls-3" d="M271.99,83.3c0,3.99.06,7.98-.01,11.97-.15,8.79-6.68,15.41-15,15.3-8.44-.11-14.29-6.28-14.33-15.19-.03-7.98-.08-15.97.04-23.95.13-8.77,6.25-14.76,14.82-14.71,8.29.05,14.23,6.03,14.39,14.6.08,3.99.01,7.98.01,11.97h.07Z"/>
  <path class="cls-1" d="M328.26,41.05c-11.46-.09-20.4-9.3-20.21-20.82C308.24,8.93,317.5.03,329.08,0c10.98-.03,20.51,9.81,20.32,20.96-.19,11.15-9.69,20.18-21.14,20.09Z"/>
</svg>