<?xml version="1.0" encoding="UTF-8"?>
<svg id="Capa_1" data-name="Capa 1" xmlns="http://www.w3.org/2000/svg" viewBox="0 0 98.12 93.53">
  <defs>
    <style>
      .cls-1 {
        fill: #0e5e65;
      }

      .cls-1, .cls-2, .cls-3 {
        stroke-width: 0px;
      }

      .cls-2 {
        fill: #32a493;
      }

      .cls-3 {
        fill: #32a596;
      }
    </style>
  </defs>
  <path class="cls-2" d="M29.75,38.5c0,7.65.09,15.31-.02,22.96-.13,8.41-6.12,14.15-14.71,14.32-8.3.16-14.8-5.75-14.89-14.11C-.04,46.37-.06,31.06.18,15.75.31,7.2,5.48,1.2,12.83.13c6.54-.95,13.51,3.42,16.23,10.03.8,1.93.8,3.89.8,5.88.01,7.49,0,14.97,0,22.46h-.12Z"/>
  <path class="cls-1" d="M63.57,50.06c0,5.83.1,11.66-.02,17.49-.18,8.64-6.59,14.97-14.88,14.87-8.02-.09-14.03-6.4-14.07-14.92-.06-11.66-.09-23.32-.03-34.99.05-9.04,5.53-14.71,14.03-14.72,8.39,0,14.85,6.32,15.02,14.76.06,3,0,6,0,9,0,2.83,0,5.66,0,8.5h-.04Z"/>
  <path class="cls-3" d="M98.1,66.25c0,3.99.06,7.98-.01,11.97-.15,8.79-6.68,15.41-15,15.3-8.44-.11-14.29-6.28-14.33-15.19-.03-7.98-.08-15.97.04-23.95.13-8.77,6.25-14.76,14.82-14.71,8.29.05,14.23,6.03,14.39,14.6.08,3.99.01,7.98.01,11.97h.07Z"/>
</svg>