<?xml version="1.0" encoding="UTF-8"?><svg id="Capa_1" xmlns="http://www.w3.org/2000/svg" viewBox="0 0 192.36 213.65"><defs><style>.cls-1{fill:#0e5e65;}.cls-1,.cls-2{stroke-width:0px;}.cls-2{fill:#24978b;}</style></defs><path class="cls-1" d="M117.75,147.62c-.28.68-.57,1.36-.85,2.03-13.8,0-27.61,0-41.42,0-.24-.29-.49-.59-.73-.88,0-2.61,0-5.23,0-7.85,0-.74,0-1.47,0-2.21,0-1.97.02-3.94.03-5.91,0-1.03-.01-2.06-.02-3.09-.01-1.24-.02-2.49-.04-3.73.02-.7.03-1.41.05-2.11-.06-5.58,1.16-11.21-.61-16.73h-35.2c-.82-1.87.42-2.54,1.1-3.35,17.62-21.02,35.33-41.96,52.85-63.07,2.61-3.14,3.91-3.18,6.53-.01,17.51,21.12,35.22,42.07,52.86,63.08.61.72,1.12,1.52,2.47,3.35-12.87,0-24.73,0-36.59,0-.26.39-.73.77-.74,1.17-.16,13.11-.5,26.21.28,39.31Z"/><path class="cls-2" d="M0,12.87c.09-2.82.46-5.67.21-8.46C-.12.83,1.24-.01,4.68,0c22.94.15,45.88.08,68.82.08,37.9,0,75.81.06,113.71-.09,3.86-.01,5.4.88,4.98,4.92-.31,2.95.07,5.97.14,8.96-.05.99-.27,2.01-.11,2.96.69,4.28-1.23,5.34-5.24,5.09-4.93-.3-9.9.05-14.85.13-1.32-.1-2.64-.29-3.96-.29-48.31-.01-96.62-.01-144.92,0-1.32,0-2.64.2-3.95.31-3.14-.08-6.28-.22-9.42-.23q-9.29-.03-9.87-8.98Z"/><path class="cls-2" d="M96.19,159.98c5.99,0,11.98.1,17.96-.05,2.55-.06,3.61.76,3.55,3.38-.12,4.99-.12,9.98,0,14.97.06,2.61-.98,3.42-3.54,3.4-11.97-.1-23.95-.1-35.92,0-2.55.02-3.6-.77-3.54-3.39.12-4.99.12-9.98,0-14.97-.06-2.61.97-3.46,3.53-3.39,5.98.15,11.97.05,17.96.05Z"/><path class="cls-1" d="M96.2,191.95c5.99,0,11.98.1,17.96-.05,2.56-.06,3.6.77,3.54,3.39-.12,4.99-.12,9.98,0,14.97.06,2.62-.98,3.42-3.54,3.39-11.97-.1-23.95-.1-35.92,0-2.56.02-3.6-.78-3.53-3.39.12-4.99.12-9.98,0-14.97-.06-2.62.97-3.45,3.53-3.39,5.98.15,11.97.05,17.96.05Z"/></svg>