<?xml version="1.0" encoding="UTF-8"?>
<svg id="Capa_1" data-name="Capa 1" xmlns="http://www.w3.org/2000/svg" viewBox="0 0 214.01 212.93">
  <defs>
    <style>
      .cls-1 {
        fill: #0e5e65;
      }

      .cls-1, .cls-2 {
        stroke-width: 0px;
      }

      .cls-2 {
        fill: #24978b;
      }
    </style>
  </defs>
  <path class="cls-1" d="M26.86,168.22c.05,3.79.43,7.61.07,11.36-.47,4.96.85,6.99,6.34,6.68,8.55-.49,17.14-.08,25.72-.06,12.69,6.13,26.38,9.6,39.48,14.64,6.92,2.66,13.72,5.83,21.11,7.26,1.89.36,3.82,1.44,3.37,4.09-15.66,0-31.32,0-46.97,0-7.08-2.23-14.16-4.38-21.05-7.26-3.92-1.64-8.24-2.49-12.15-4.37-3.71-1.78-7.22-2.63-10.12,1.42-.39.55-1.17.55-1.84.3-1.3-3.17-2.28-6.52-6.33-7.51-1.32-.32-1.52-2.04-2.16-3.18-2.02-3.56-4.87-3.9-7.36-.67-1.6,2.08-2.9,4.15-5.97,2.74-1.66-1.86-3.43-3.56-5.76-4.63-1.36-.62-3.17-1.63-2.59-3.21,1.5-4.09-.41-7.98-.14-11.97.3-4.28-.43-8.6.4-12.88,1.84-1.23,3.56-.32,5.21.4,6.7,2.92,13.58,5.28,20.74,6.81Z"/>
  <path class="cls-1" d="M122.95,212.2c-.83-1.5-1.93-2.54-3.71-2.99-16.07-4.03-31.09-11.1-46.79-16.23-4.83-1.58-10.31-1.87-13.47-6.78,15.66,0,31.31,0,46.97,0,8.65,4.53,18.19,6.77,27.13,10.44,8.87,3.65,18.07,6.33,26.87,10.1,2.45,1.05,5.1,1.44,7.64,2.21,1.47.44,3.59.71,2.33,3.24-15.66,0-31.32,0-46.98,0Z"/>
  <path class="cls-1" d="M169.93,212.2c-.16-1.8-1.48-1.82-2.87-2.04-9.61-1.48-18.47-5.73-27.46-8.89-8.63-3.04-17.13-6.64-25.96-9.4-2.6-.81-6.24-2.29-7.69-5.66,19.32,0,38.65,0,57.97,0,3.28,2.91,7.4,4.05,11.43,5.39,3.03,1,5.89,2.25,6.16,6.08-.11,3.24,2.3,4.94,4.12,7.09,1.95,2.3,5.38,3.59,5.28,7.37-7,.02-14,.04-21,.05Z"/>
  <path class="cls-1" d="M31.02,202.23c5.04-5.86,4.92-5.52,12.93-2.66,9.38,3.34,18.41,7.78,28.29,9.67,1.83.35,2.9,1.46,3.74,2.96-17.99,0-35.98-.02-53.97-.03.96-5.17,3.62-8.79,9.02-9.94Z"/>
  <path class="cls-1" d="M31.02,202.23c-3.36,2.99-6.73,5.98-9.02,9.94-2.33.13-4.65,1.65-6.98,0-4.57-2.27-7.51-6.38-11.01-9.85-1.7-1.68-1.65-3.53.02-5.24,1.48-1.51,2.68-3.42,4.99-3.85,2.17.21,3.81-.21,4.43-2.74.74-2.99,3.09-3.36,5.81-3.32,2.73.04,3.74,1.7,4.51,3.81.42,1.16.02,2.94,1.82,3.12,5.19.52,5.86,3.92,5.42,8.13Z"/>
  <path class="cls-1" d="M190.93,212.15c-2.96-3.1-5.87-6.25-8.9-9.28-1.39-1.39-2.54-2.67-1.09-4.64,2.12-5.37,7.5-7.63,11.24-11.42,2.31-2.34,6.59-.65,8.32,2.64,1.06,2.01,2.36,3.39,4.35,4.49,4.33,2.4,4.85,4.32,3.21,9.48-4.22,1.67-5.48,6.47-9.15,8.73-2.66.46-5.32.46-7.99,0Z"/>
  <path class="cls-1" d="M9.03,193.23q-5.57,6.92,1.02,13.53c1.72,1.74,3.32,3.6,4.98,5.4-3.66.02-7.33-.1-10.99.12-3.12.19-4.01-1.1-3.98-4.08.11-9.66,0-19.32-.03-28.97C.02,160.76,0,142.29,0,123.82c0-8.34,1.63-9.41,10.09-6.62-.21.26-.41.57-.7.68q-6.79,2.74-6.79,10.37c0,3.14.11,6.29-.1,9.44.38,5.98.17,11.95.16,17.92,0,2-.11,4.01-1.59,5.6-.01,2.33-.08,4.66-.02,6.99.14,5.64-1.66,11.83,5.07,15.33-2.53,2.15-3.02-.79-4.66-.39-.84,1.03-.75,2.56.15,3.35,1.32,1.17,3.03,2.07,4.72,2.6,2.21.7,2.8,2.11,2.71,4.13Z"/>
  <path class="cls-1" d="M198.91,212.14c2.12-3.46,3.6-7.5,8-8.92,3.4-4.22,5.64-8.82,4.01-14.38-1.35-4.63,1.5-9.05.47-13.63-.19-7.29-.25-14.57.01-21.85-.3-8.96-.23-17.93-.06-26.89.09-4.5-.5-7.93-5.95-8.16-.65-.03-1.17-.58-1.59-1.11,2.43-1.62,5.16-.86,7.75-.84,3.27.02,2.29,2.72,2.3,4.48.03,17.8-.02,35.6-.03,53.41,0,1.99.12,3.99.18,5.98-.09,9.23-.33,18.46-.2,27.69.05,3.49-1.1,4.71-4.52,4.45-3.44-.27-6.91-.16-10.37-.22Z"/>
  <path class="cls-2" d="M134.91,27.68c4.66,4.66,9.31,9.32,13.97,13.98.95,1.9-.6,2.34-1.78,2.79-1.73.66-3.6.57-5.43.57-23.13.02-46.26.02-69.38,0-1.66,0-3.36.06-4.96-.42-1.6-.49-3.39-1-2.39-3.39,4.66-4.66,9.33-9.33,13.99-13.99,18.66,1.03,37.33.24,55.99.46Z"/>
  <path class="cls-2" d="M128.12,58.35c-14.1,0-28.2,0-42.29,0-10.63-.08-21.26-.09-31.89-.36-1.29-.03-4.19,1.82-4.04-1.88.42-.83,1.01-1.49,1.88-1.87,1.72-1.68,3.45-3.35,5.17-5.03,31.06.94,62.13.19,93.19.4,2.33.02,4.65-.06,6.91.66,1.91,1.48,3.82,2.95,5.73,4.43.5.02.75.29.78.78-.33,3.67-3.19,2.55-5.21,2.59-10.07.18-20.15.21-30.22.3Z"/>
  <path class="cls-2" d="M157.04,50.26c-1.95,1.21-4.13,1.06-6.29,1.05-29.24,0-58.47,0-87.71-.02-2.22,0-4.8.73-6.1-2.09,2.39-2.94,5.01-5.65,7.99-7.99.34,2.38,2.16,2.1,3.8,2.1,25.51,0,51.01,0,76.52,0,1.41,0,3.12.46,3.62-1.64,3.3,2.32,6,5.21,8.16,8.6Z"/>
  <path class="cls-1" d="M203.81,117.2q9.12.2,9.1,9.22c-.02,8.92-.07,17.85-.11,26.77-1.16,1.19-2.68,1.53-4.08.93-7.07-3.03-14.76-4.35-21.63-7.89-.05-4.62-.75-9.28.64-13.84,2.48-8.12,7.65-13.38,16.08-15.19Z"/>
  <path class="cls-1" d="M212.82,176.17c.34,6-.74,11.95-.1,18.01.42,3.97-2.27,7.05-5.81,9.05.13-.3.27-.6.4-.91.83-1.95,1.13-5.18-.5-5.36-6.48-.68-5.84-10.3-12.91-9.72-1.25.1-2.48.53-2.94,1.58-2.02,4.59-7.04,5.9-10.03,9.4-1.16-3.93-4.48-4.86-7.85-6.05-3.46-1.23-8.05-1.01-9.16-5.95,6.09-.07,12.19-.45,18.26-.09,4.2.25,5.03-1.4,4.79-5.07-.23-3.6.05-7.23.11-10.85,1.38-1.73,3.12-1.48,4.93-.93,4.38,1.31,9.05,1.76,12.88,4.61,2.34,1.75,5.51.74,7.93,2.28Z"/>
  <path class="cls-1" d="M212.82,176.17c-4.12,1.39-7.42-.52-10.95-2.34-4.57-2.36-9.57-3.59-14.79-3.62,0-7.99,0-15.99,0-23.98,7.04.18,13.18,3.6,19.65,5.73,2.06.68,3.93,1.35,6.07,1.23,0,7.66.01,15.32.02,22.98Z"/>
  <path class="cls-1" d="M1.06,161.22c0-7.99,0-15.99,0-23.98,2.34-1.43,4.14.38,5.9,1.24,6.36,3.1,13.22,4.61,19.89,6.75,0,7.66,0,15.33.01,22.99-4.16,2.53-7.48-.93-11.15-1.66-5.13-1.02-9.45-4.41-14.65-5.34Z"/>
  <path class="cls-2" d="M134.91,27.68c-.68,2.33-2.63,1.61-4.15,1.61-15.58.04-31.16.03-46.74.03-2,0-4.07.23-5.1-2.11,3.4-3.92,7.03-7.63,10.99-10.99,10.99-1.11,22.01-.14,33-.54,4,4,7.99,8,11.99,12Z"/>
  <path class="cls-1" d="M26.85,145.23c-9.7.91-17.35-4.82-25.79-7.99-.02-4.77.25-9.57-.14-14.31-.37-4.54,1.14-6.43,5.73-5.71,1.12.18,2.3,0,3.45-.01,11.16,3.01,16.89,10.49,16.9,22.05,0,1.99-.09,3.98-.14,5.97Z"/>
  <path class="cls-2" d="M122.93,15.69c-.33,1.44-1.39,1.65-2.64,1.65-9.41-.02-18.82,0-28.24-.08-.71,0-1.42-.67-2.13-1.02,4.82-4.95,9.68-9.87,14.45-14.88,1.77-1.85,3.11-1.79,4.86.1,4.48,4.83,9.12,9.5,13.69,14.23Z"/>
  <rect class="cls-2" x="89.92" y="46.29" width="33" height="125.29"/>
</svg>