<?xml version="1.0" encoding="UTF-8"?>
<svg id="Capa_1" data-name="Capa 1" xmlns="http://www.w3.org/2000/svg" viewBox="0 0 191.47 191.52">
  <defs>
    <style>
      .cls-1 {
        fill: #258d7f;
        stroke-width: 0px;
      }
    </style>
  </defs>
  <path class="cls-1" d="M191.47,191.52H0V0h191.47v191.52ZM95.26,170.44v-.02c23.49,0,46.98-.05,70.47.05,3.48.02,4.95-.66,4.93-4.68-.16-46.33-.19-92.65,0-138.98.02-4.93-1.41-6.05-6.13-6.03-46.32.16-92.63.12-138.95,0-3.49,0-4.62.94-4.61,4.47.09,46.83.09,93.65,0,140.48,0,3.66.97,4.82,4.81,4.79,23.16-.19,46.32-.1,69.47-.1Z"/>
  <path class="cls-1" d="M47.91,52.85c9.49,0,17.6-.12,25.7.13,1.31.04,2.83,1.53,3.8,2.72,6.01,7.34,11.89,14.79,18.38,22.91,4.13-5.17,8.61-9.69,11.77-14.99,5.29-8.88,12.37-12.56,22.62-10.89,3.98.65,8.16.11,13.52.11-11.94,14.89-23.03,28.7-34.27,42.72,11.29,14.15,22.34,28.01,34.21,42.89-9.5,0-17.76.13-26.01-.14-1.27-.04-2.7-1.72-3.69-2.93-5.98-7.3-11.86-14.69-18.16-22.54-6.09,7.6-11.91,14.62-17.43,21.86-2.12,2.77-4.35,4.03-7.93,3.88-7.07-.29-14.16-.09-22.51-.09,11.83-14.82,22.87-28.66,34.17-42.82-11.17-14-22.25-27.88-34.16-42.82Z"/>
</svg>